# xmcd
#
# Track frame offsets: 
#        150
#        8060
#        16356
#        31005
#        49952
#        67673
#        85102
#        101953
#        117724
#        130221
#        142882
#        156527
#        170934
#        185486
#        201480
#        218191
#        228135
#        246584
#        265559
#        278188
#        297348
#        321367
#        335267
#        341244
#
# Disc length: 4739 seconds
#
# Revision: 0
# Processed by: cddbd v1.5.2PL0 Copyright (c) Steve Scherf et al.
# Submitted via: ExactAudioCopy v0.95b3
#
DISCID=72128118
DTITLE=Jimi Hendrix  - Moonbeams and Fairytales - Disc 08
DYEAR=1900
DGENRE=
TTITLE0=Red House
TTITLE1=Red House
TTITLE2=Red House
TTITLE3=Red House
TTITLE4=Red House
TTITLE5=Red House
TTITLE6=La Poupee Qui Fait Non
TTITLE7=La Poupee Qui Fait Non
TTITLE8=Purple Haze
TTITLE9=Purple Haze
TTITLE10=May This Be Love
TTITLE11=May This Be Love
TTITLE12=May This Be Love
TTITLE13=Highway Chile
TTITLE14=Highway Chile
TTITLE15=Title #3
TTITLE16=Are You Experienced
TTITLE17=Are You Experienced
TTITLE18=Are You Experienced
TTITLE19=Are You Experienced
TTITLE20=Are You Experienced
TTITLE21=Lover Man
TTITLE22=Interview (Lief Anderson)
TTITLE23=Manic Depression
EXTD=
EXTT0=
EXTT1=
EXTT2=
EXTT3=
EXTT4=
EXTT5=
EXTT6=
EXTT7=
EXTT8=
EXTT9=
EXTT10=
EXTT11=
EXTT12=
EXTT13=
EXTT14=
EXTT15=
EXTT16=
EXTT17=
EXTT18=
EXTT19=
EXTT20=
EXTT21=
EXTT22=
EXTT23=
PLAYORDER=
